<svg xmlns="http://www.w3.org/2000/svg" xmlns:xlink="http://www.w3.org/1999/xlink" width="57" height="31" viewBox="0 0 57 31">
    <defs>
        <path id="a" d="M57 31V0H0v31z"/>
    </defs>
    <g fill="none" fill-rule="evenodd">
        <mask id="b" fill="#fff">
            <use xlink:href="#a"/>
        </mask>
        <path fill="#000" d="M49.91 11.53h-5v11.54h-3.7V11.53H36.6l-3.2 4.19 5.74 7.35h-4.33l-3.13-4.25a4.506 4.506 0 0 1-.68-1.08c-.186.376-.41.73-.67 1.06l-3.07 4.27H23l5.7-7.47-5.43-7h4.29l2.91 4.07c.235.277.426.587.57.92.151-.33.343-.638.57-.92l3-4.07h15.3v2.93zM15.82 23.07H8.69V8.62h7.18c4.74 0 7.79 2.71 7.79 7.06s-3.12 7.39-7.84 7.39zM53 0H4a4 4 0 0 0-4 4v23a4 4 0 0 0 4 4h49a4 4 0 0 0 4-4V4a4 4 0 0 0-4-4z" mask="url(#b)"/>
        <path fill="#000" d="M15.53 11.25h-3.15v9.2h3.13c2.75 0 4.29-2 4.29-4.72 0-2.72-1.58-4.48-4.27-4.48"/>
    </g>
</svg>
