<svg xmlns="http://www.w3.org/2000/svg" xmlns:xlink="http://www.w3.org/1999/xlink" width="278" height="36" viewBox="0 0 278 36">
    <defs>
        <path id="a" d="M0 35.53h277.33V0H0z"/>
    </defs>
    <g fill="none" fill-rule="evenodd">
        <path fill="#0A1C34" d="M16.08 28.61c6.48 0 10.13-4.7 10.13-11.14S22.47 6.91 16.13 6.91H8.69v21.7h7.39zM0 .72h16.95c11.18 0 18.38 6.38 18.38 16.66 0 10.28-7.39 17.42-18.53 17.42H0V.72zM57.29 25.23v-1.47l-6.43.67c-3.5.43-4.9 1.39-4.9 3.22 0 1.83 1.68 2.88 4.46 2.88 4.08 0 6.87-2.11 6.87-5.33v.03zm-19.83 3a6.06 6.06 0 0 1 2.69-5.28c1.68-1.15 4.08-1.87 8.3-2.3l8.69-.77v-.72c0-2.69-1.78-4-4.94-4s-5.18 1.3-5.47 3.65h-8.55c.62-5.42 6-8.74 14-8.74 9.17 0 13.3 3.31 13.3 10.32v7.39a32.886 32.886 0 0 0 .58 7h-8.2a21.314 21.314 0 0 1-.34-4.08c-1.54 3-5.28 4.8-10.27 4.8-6.04.02-9.79-2.76-9.79-7.27zM67.77 10.8h5.38V5.09L81.45 2v8.8h7.87v5.42h-7.87v8.35c0 2.83 1.49 4.18 4.51 4.18a12.228 12.228 0 0 0 3.31-.38v6.24a19.165 19.165 0 0 1-5.57.72c-7.2 0-10.56-3-10.56-9v-10.1h-5.37V10.8zM111.61 25.23v-1.47l-6.43.67c-3.5.43-4.9 1.39-4.9 3.22 0 1.83 1.68 2.88 4.46 2.88 4.09 0 6.87-2.11 6.87-5.33v.03zm-19.83 3a6.06 6.06 0 0 1 2.69-5.28c1.68-1.15 4.08-1.87 8.3-2.3l8.69-.77v-.72c0-2.69-1.78-4-4.94-4s-5.18 1.3-5.47 3.65H92.5c.62-5.42 6-8.74 14-8.74 9.17 0 13.3 3.31 13.3 10.32v7.39a32.886 32.886 0 0 0 .58 7h-8.21a21.307 21.307 0 0 1-.34-4.08c-1.54 3-5.28 4.8-10.27 4.8-6.03.02-9.78-2.76-9.78-7.27zM121.82 10.8h8.11l4 14.69c.188.79.33 1.593.43 2.4h.1c.129-.81.305-1.611.53-2.4l4.61-14.69h7.68l4.61 14.69c.248.783.426 1.586.53 2.4h.1c.114-.81.274-1.61.48-2.4l3.94-14.69h8.16l-7.92 24h-8.54L144 20.74a12.057 12.057 0 0 1-.48-2.35h-.14a9.555 9.555 0 0 1-.53 2.35l-4.61 14.06h-8.54l-7.88-24zM185.63 25.23v-1.47l-6.43.67c-3.5.43-4.9 1.39-4.9 3.22 0 1.83 1.68 2.88 4.46 2.88 4.08 0 6.87-2.11 6.87-5.33v.03zm-19.83 3a6.062 6.062 0 0 1 2.69-5.28c1.68-1.15 4.08-1.87 8.3-2.3l8.69-.77v-.72c0-2.69-1.78-4-4.94-4s-5.18 1.3-5.47 3.65h-8.54c.62-5.42 6-8.74 14-8.74 9.17 0 13.3 3.31 13.3 10.32v7.39a32.886 32.886 0 0 0 .58 7h-8.21a21.227 21.227 0 0 1-.34-4.08c-1.54 3-5.28 4.8-10.27 4.8-6.05.02-9.79-2.76-9.79-7.27z"/>
        <mask id="b" fill="#fff">
            <use xlink:href="#a"/>
        </mask>
        <path fill="#0A1C34" d="M199.3 34.8h8.3V0h-8.3zM213.45 34.8h8.3V0h-8.3zM246.45 20c0-3.26-2.45-5.23-6.24-5.23s-6.34 2-6.58 5.38h12.82V20zm8.16 4.63h-20.93c.29 3.26 3 5.28 7.25 5.28a7.81 7.81 0 0 0 7-3.5l6.19 2.83c-2.5 4-7.2 6.29-13.39 6.29-9.26 0-14.93-4.66-14.93-12.53 0-7.87 5.67-12.91 14.55-12.91 9.12 0 14.3 4.7 14.3 12.62l-.04 1.92zM255.78 10.8h5.38V5.09l8.3-3.09v8.8h7.87v5.42h-7.87v8.35c0 2.83 1.49 4.18 4.51 4.18a12.23 12.23 0 0 0 3.31-.38v6.24a19.203 19.203 0 0 1-5.57.72c-7.2 0-10.56-3-10.56-9v-10.1h-5.38l.01-5.43z" mask="url(#b)"/>
    </g>
</svg>
